# xmcd
#
# Track frame offsets:
# 150
# 7880
# 23415
# 41937
# 54677
# 67920
# 80725
# 97082
# 109035
# 124740
# 138985
# 152000
# 162857
# 172300
# 190852
# 212555
#
# Disc length: 3037 seconds
#
#
# Revision: 0
# Processed by: cddbd v1.5.1PL0 Copyright (c) Steve Scherf et al.
# Submitted via: FreeRIP 2.92 
#
DISCID=d60bdb10
DTITLE=The Best of Louis Armstrong
DYEAR=1900
DGENRE=
TTITLE0=When The Saints Go Marching In
TTITLE1=On the Sunny Side of The Street
TTITLE2=Ain't Misbehavin
TTITLE3=Tiger Rag
TTITLE4=Muskrat Ramble
TTITLE5=Jelly Rool Blues
TTITLE6=C'est Si Bon
TTITLE7=Hello Doly
TTITLE8=Mack the Knife
TTITLE9=A Kiss to Build a Dream on
TTITLE10=Tyrees Blues
TTITLE11=Pretty Little Missy
TTITLE12=Dear Old Southland
TTITLE13=Panama
TTITLE14=St. James Infirmary
TTITLE15=New Orleans Stomp
EXTD=
EXTT0=
EXTT1=
EXTT2=
EXTT3=
EXTT4=
EXTT5=
EXTT6=
EXTT7=
EXTT8=
EXTT9=
EXTT10=
EXTT11=
EXTT12=
EXTT13=
EXTT14=
EXTT15=
PLAYORDER=
